# xmcd CD database file
#
# Track frame offsets:
#	182
#	16185
#	29557
#	43237
#	63952
#	76907
#	90985
#	105685
#	117760
#	131317
#	143027
#	158682
#	172262
#	185915
#	201367
#
# Disc length: 2870 seconds
#
# Revision: 0
# Processed by: cddbd v1.4PL0 Copyright (c) Steve Scherf et al.
# Submitted via: CDex 1.50Beta7
#
DISCID=c80b340f
DTITLE=Benny Goodman - The Very Best of Benny Goodman
DYEAR=1900
DGENRE=Jazz
TTITLE0=Something New
TTITLE1=Air Mail Special
TTITLE2=Scarecrow
TTITLE3=Superman
TTITLE4=Clarinade
TTITLE5=Love Walked In
TTITLE6=Moonlight On The Ganges
TTITLE7=Mission To Moscow
TTITLE8=Jersey Bounce
TTITLE9=The Earl
TTITLE10=The Birth Of The Blues
TTITLE11=Pound Ridge
TTITLE12=Idaho
TTITLE13=My Little Cousin
TTITLE14=Time On My Hands (You In My Arms)
EXTD=
EXTT0=
EXTT1=
EXTT2=
EXTT3=
EXTT4=
EXTT5=
EXTT6=
EXTT7=
EXTT8=
EXTT9=
EXTT10=
EXTT11=
EXTT12=
EXTT13=
EXTT14=
PLAYORDER=
